<?xml version="1.0" encoding="utf-8"?>
<!-- Generator: Adobe Illustrator 27.0.0, SVG Export Plug-In . SVG Version: 6.00 Build 0)  -->
<svg version="1.1" id="Layer_1" xmlns="http://www.w3.org/2000/svg" xmlns:xlink="http://www.w3.org/1999/xlink" x="0px" y="0px"
	 viewBox="0 0 48 48" style="enable-background:new 0 0 48 48;" xml:space="preserve">
<style type="text/css">
	.st0{fill:#131313;}
	.st1{fill:#141414;}
	.st2{fill:#FFFFFF;}
</style>
<path class="st0" d="M-16.7,106.3"/>
<polygon class="st1" points="19,62.7 19,62.7 19,62.7 "/>
<path class="st1" d="M-1.5,74.9L-1.5,74.9L-1.5,74.9z"/>
<g>
	<path class="st1" d="M19-16c-0.2-0.1-0.3-0.2-0.4-0.3c-1.2-1.2-2.3-2.4-3.5-3.7c-0.4-0.5-0.7-1-1-1.6c-0.1-0.4-0.3-0.6-0.8-0.6
		c-0.4,0-0.6-0.2-0.7-0.5c-0.1-0.4-0.1-0.8,0.2-1s0.3-0.5,0.2-0.8c-0.2-0.6-0.2-1.2-0.1-1.8c0.1-1,0.3-2.1,0.4-3.1
		c0-0.2,0-0.3,0.1-0.5c0.1,0.1,0.1,0.2,0.1,0.3c0.2,1.2,0.3,2.4,0.5,3.6c0.1,0.6-0.1,1.1-0.2,1.6c-0.1,0.2-0.1,0.4,0.2,0.6
		c0.4,0.3,0.5,0.6,0.3,1.1c-0.1,0.2-0.1,0.3,0.1,0.4c1.6,1.1,2.4,2.9,3.4,4.4C18.3-17.2,18.7-16.6,19-16L19-16z"/>
	<text transform="matrix(1 0 0 1 -4.9285 -20.6366)" style="font-family:'SarySoft-SemiBold'; font-size:8.225px;">IRON  CLAD</text>
</g>
<g>
	<path d="M45.3,29.6c-0.2,1.3-0.8,2.6-1.5,3.7c-3.2,5.7-8,9.2-14.4,10.3c-6.6,1.1-12.4-0.8-17.3-5.3c-3.7-3.5-5.7-7.9-6.2-13
		c-0.1-0.8,0-1.6,0-2.5c0-0.3,0-0.6-0.4-0.8c-0.3-0.1-0.6-0.1-0.9,0.2c-0.3,0.3-1.2,0.3-1.7,0c-0.5-0.3-0.4-0.7-0.3-1.1
		c0.1-0.4,0.2-0.9,0.3-1.3c0.1-0.4,0.4-0.6,0.8-0.6c0.6,0.1,1.2,0.1,1.5,0.8c0.1,0.3,0.4,0.3,0.6,0.3c0.3,0,0.3-0.3,0.4-0.5
		c0.3-1.5,0.7-3,1.4-4.4c3.3-6.9,8.7-10.8,16.2-11.8c2.2-0.3,4.4-0.1,6.6,0.3c0.4,0.1,0.7,0.2,1.1,0.4c-0.4,0-0.8-0.1-1.1-0.1
		c-9.9-1-18.7,6.4-19.6,16.4c-0.8,9,5.3,17.7,14.9,19.5c7.8,1.4,15.7-2.6,19.2-9.6C45,30.2,45.2,29.9,45.3,29.6L45.3,29.6z"/>
	<path d="M36.4,37.2c-0.3-0.1-0.5-0.3-0.7-0.6c-2.2-2.4-4.5-4.7-6.7-7.1c-0.9-0.9-1.4-1.9-1.9-3c-0.3-0.7-0.7-1.3-1.6-1.2
		c-0.7,0-1.1-0.4-1.4-1.1c-0.2-0.7-0.2-1.5,0.5-1.9c0.7-0.5,0.7-0.9,0.4-1.6c-0.5-1.1-0.5-2.3-0.3-3.5c0.3-2,0.5-4.1,0.8-6.1
		c0-0.3,0-0.7,0.2-1c0.2,0.2,0.2,0.4,0.2,0.7c0.3,2.3,0.6,4.7,1,7c0.2,1.1-0.1,2.1-0.4,3.1c-0.2,0.5-0.1,0.8,0.3,1.1
		c0.7,0.5,1,1.2,0.6,2.1c-0.1,0.3-0.1,0.6,0.2,0.9c3.2,2.1,4.6,5.6,6.7,8.6C35,34.8,35.8,36,36.4,37.2L36.4,37.2z"/>
</g>
<g>
	<path class="st2" d="M86.5,10.8v11.7c0,0.5-0.5,1-1,1s-1-0.5-1-1V10.8c0-0.6,0.4-1,1-1S86.5,10.2,86.5,10.8z"/>
	<path class="st2" d="M95,18.1l2.6,3.8c0.1,0.2,0.2,0.4,0.2,0.5c0,0.5-0.4,1-1,1c-0.3,0-0.7-0.2-0.8-0.5l-3-4.6h-1.2v4
		c0,0.5-0.4,1-1,1s-1-0.5-1-1V10.8c0-0.6,0.5-1,1-1H93c2.9,0,4.8,1.9,4.8,4.3C97.8,15.8,96.7,17.5,95,18.1z M95.7,14.1
		c0-1.3-0.9-2.4-2.7-2.4h-1.3v4.8h1.7C94.7,16.5,95.7,15.4,95.7,14.1z"/>
	<path class="st2" d="M110.1,15v3.2c0,3.4-2.4,5.6-5.1,5.6c-2.8,0-5.1-2.1-5.1-5.6V15c0-3.5,2.3-5.6,5.1-5.6
		C107.9,9.4,110.1,11.7,110.1,15z M101.9,18.3c0,2.2,1.4,3.5,3,3.5c1.7,0,3.1-1.3,3.1-3.5v-3.4c0-2.2-1.4-3.5-3.1-3.5
		c-1.7,0-3,1.3-3,3.5V18.3z"/>
	<path class="st2" d="M122,22.4c0,0.5-0.4,1-1,1c-0.4,0-0.6-0.1-0.8-0.4c-1.5-2.3-6.2-9.1-6.2-9.1v8.6c0,0.5-0.4,1-1,1
		c-0.5,0-1-0.4-1-1V10.8c0-0.5,0.4-1,1-1c0.4,0,0.7,0.2,0.8,0.4c1.5,2.2,6.1,9.1,6.1,9.1v-8.6c0-0.5,0.4-1,1-1c0.6,0,1,0.5,1,1
		C122,10.8,122,22.4,122,22.4z"/>
	<path class="st2" d="M82.1,31.3c0-3.4,2.3-5.6,5.1-5.6c1.5,0,2.9,0.7,3.9,1.8c0.2,0.2,0.2,0.4,0.2,0.6c0,0.4-0.3,0.9-0.9,0.9
		c-0.3,0-0.5-0.1-0.7-0.3c-0.9-0.9-1.7-1.1-2.5-1.1c-1.7,0-3.1,1.3-3.1,3.5v3.4c0,2.2,1.4,3.5,3.1,3.5c0.8,0,1.6-0.2,2.5-1.1
		c0.2-0.2,0.4-0.3,0.7-0.3c0.6,0,0.9,0.5,0.9,0.9c0,0.2-0.1,0.4-0.2,0.6c-1,1.2-2.4,1.8-3.9,1.8c-2.8,0-5.1-2.1-5.1-5.6V31.3z"/>
	<path class="st2" d="M100.5,39.8h-6.5c-0.6,0-1-0.5-1-1V27.1c0-0.6,0.5-1,1-1s1,0.5,1,1v10.8h5.5c0.5,0,1,0.4,1,1
		S101.1,39.8,100.5,39.8z"/>
	<path class="st2" d="M112.9,38.4c0,0.1,0.1,0.2,0.1,0.3c0,0.5-0.4,1-1,1c-0.4,0-0.8-0.2-0.9-0.7l-1.1-3.1h-4.6l-1.1,3.1
		c-0.2,0.4-0.6,0.7-0.9,0.7c-0.5,0-1-0.4-1-1c0-0.1,0-0.2,0.1-0.4l4.4-11.7c0.1-0.4,0.5-0.7,1-0.7c0.4,0,0.8,0.3,0.9,0.7L112.9,38.4
		z M109.2,34.1l-1.6-4.4l-1.6,4.4H109.2z"/>
	<path class="st2" d="M123.8,31.5v2.8c0,3.3-2.2,5.5-5.4,5.5h-2.8c-0.6,0-1-0.5-1-1V27.1c0-0.6,0.5-1,1-1h2.9
		C121.5,26,123.8,28,123.8,31.5z M118.2,37.8c2.2,0,3.6-1.2,3.6-3.5v-2.8c0-2.2-1.3-3.5-3.5-3.5h-1.8v9.9L118.2,37.8L118.2,37.8z"/>
</g>
<text transform="matrix(1 0 0 1 56.9952 66.134)" class="st2" style="font-family:'SarySoft-SemiBold'; font-size:26.2023px;">ICW</text>
</svg>
