<?xml version="1.0" encoding="utf-8"?>
<!-- Generator: Adobe Illustrator 27.0.0, SVG Export Plug-In . SVG Version: 6.00 Build 0)  -->
<svg version="1.1" id="Layer_1" xmlns="http://www.w3.org/2000/svg" xmlns:xlink="http://www.w3.org/1999/xlink" x="0px" y="0px"
	 viewBox="0 0 48 48" style="enable-background:new 0 0 48 48;" xml:space="preserve">
<style type="text/css">
	.st0{fill:#131313;}
	.st1{fill:#141414;}
	.st2{fill:#FFFFFF;}
</style>
<g>
	<path d="M45.3,29.6c-0.2,1.3-0.8,2.6-1.5,3.7c-3.2,5.7-8,9.2-14.4,10.3c-6.6,1.1-12.4-0.8-17.3-5.3c-3.7-3.5-5.7-7.9-6.2-13
		c-0.1-0.8,0-1.6,0-2.5c0-0.3,0-0.6-0.4-0.8c-0.3-0.1-0.6-0.1-0.9,0.2c-0.3,0.3-1.2,0.3-1.7,0c-0.5-0.3-0.4-0.7-0.3-1.1
		c0.1-0.4,0.2-0.9,0.3-1.3c0.1-0.4,0.4-0.6,0.8-0.6c0.6,0.1,1.2,0.1,1.5,0.8c0.1,0.3,0.4,0.3,0.6,0.3c0.3,0,0.3-0.3,0.4-0.5
		c0.3-1.5,0.7-3,1.4-4.4c3.3-6.9,8.7-10.8,16.2-11.8c2.2-0.3,4.4-0.1,6.6,0.3c0.4,0.1,0.7,0.2,1.1,0.4c-0.4,0-0.8-0.1-1.1-0.1
		c-9.9-1-18.7,6.4-19.6,16.4c-0.8,9,5.3,17.7,14.9,19.5c7.8,1.4,15.7-2.6,19.2-9.6C45,30.2,45.2,29.9,45.3,29.6L45.3,29.6z"/>
	<path d="M36.4,37.2c-0.3-0.1-0.5-0.3-0.7-0.6c-2.2-2.4-4.5-4.7-6.7-7.1c-0.9-0.9-1.4-1.9-1.9-3c-0.3-0.7-0.7-1.3-1.6-1.2
		c-0.7,0-1.1-0.4-1.4-1.1c-0.2-0.7-0.2-1.5,0.5-1.9c0.7-0.5,0.7-0.9,0.4-1.6c-0.5-1.1-0.5-2.3-0.3-3.5c0.3-2,0.5-4.1,0.8-6.1
		c0-0.3,0-0.7,0.2-1c0.2,0.2,0.2,0.4,0.2,0.7c0.3,2.3,0.6,4.7,1,7c0.2,1.1-0.1,2.1-0.4,3.1c-0.2,0.5-0.1,0.8,0.3,1.1
		c0.7,0.5,1,1.2,0.6,2.1c-0.1,0.3-0.1,0.6,0.2,0.9c3.2,2.1,4.6,5.6,6.7,8.6C35,34.8,35.8,36,36.4,37.2L36.4,37.2z"/>
</g>
</svg>
