<?xml version="1.0" encoding="utf-8"?>
<!-- Generator: Adobe Illustrator 27.0.0, SVG Export Plug-In . SVG Version: 6.00 Build 0)  -->
<svg version="1.1" id="Layer_1" xmlns="http://www.w3.org/2000/svg" xmlns:xlink="http://www.w3.org/1999/xlink" x="0px" y="0px"
	 viewBox="0 0 48 48" style="enable-background:new 0 0 48 48;" xml:space="preserve">
<style type="text/css">
	.st0{fill:#131313;}
	.st1{fill:#141414;}
	.st2{fill:#FFFFFF;}
</style>
<g>
	<path class="st2" d="M45.35,29.63c-0.25,1.34-0.84,2.56-1.49,3.74c-3.19,5.69-8.01,9.2-14.42,10.27c-6.6,1.1-12.42-0.75-17.29-5.35
		c-3.74-3.53-5.7-7.94-6.18-13.03c-0.08-0.81-0.03-1.63-0.04-2.45c0-0.31-0.03-0.62-0.38-0.75c-0.32-0.12-0.6-0.13-0.88,0.16
		c-0.3,0.3-1.19,0.26-1.67-0.01c-0.45-0.26-0.36-0.66-0.28-1.06c0.08-0.43,0.17-0.86,0.27-1.28c0.1-0.41,0.38-0.61,0.8-0.56
		c0.6,0.07,1.23,0.11,1.49,0.83c0.09,0.26,0.36,0.33,0.62,0.3c0.29-0.03,0.34-0.27,0.38-0.5c0.31-1.53,0.74-3.03,1.41-4.44
		c3.26-6.85,8.67-10.78,16.17-11.82c2.2-0.31,4.4-0.14,6.57,0.34c0.36,0.08,0.72,0.19,1.06,0.42c-0.38-0.03-0.76-0.07-1.14-0.1
		C20.44,3.37,11.6,10.77,10.7,20.7c-0.82,9.04,5.27,17.73,14.91,19.48c7.78,1.41,15.71-2.58,19.25-9.65
		C45.01,30.22,45.19,29.93,45.35,29.63L45.35,29.63z"/>
	<path class="st2" d="M36.42,37.2c-0.31-0.11-0.52-0.34-0.74-0.57c-2.24-2.37-4.48-4.74-6.74-7.1c-0.85-0.89-1.42-1.93-1.87-3.05
		c-0.29-0.74-0.66-1.26-1.6-1.2c-0.67,0.04-1.15-0.43-1.35-1.06c-0.22-0.7-0.19-1.45,0.46-1.89c0.66-0.45,0.66-0.93,0.4-1.56
		c-0.47-1.12-0.47-2.28-0.3-3.47c0.29-2.02,0.51-4.05,0.76-6.08c0.04-0.32,0.03-0.66,0.21-0.98c0.24,0.2,0.22,0.45,0.25,0.67
		c0.32,2.34,0.59,4.68,0.95,7.01c0.17,1.11-0.11,2.13-0.44,3.15c-0.16,0.48-0.12,0.8,0.33,1.13c0.7,0.5,0.96,1.22,0.63,2.06
		c-0.13,0.33-0.12,0.64,0.19,0.85c3.18,2.13,4.57,5.65,6.67,8.62C35.02,34.85,35.81,35.97,36.42,37.2L36.42,37.2z"/>
</g>
</svg>
